<svg xmlns="http://www.w3.org/2000/svg" viewBox="0 0 1040 600" width="1040" height="600">
  <defs>
    <linearGradient id="bg" x1="0" y1="0" x2="1" y2="1">
      <stop offset="0" stop-color="#1e82ce"/>
      <stop offset="0.55" stop-color="#1a67a6"/>
      <stop offset="1" stop-color="#312e81"/>
    </linearGradient>
    <linearGradient id="glow" x1="0" y1="0" x2="0" y2="1">
      <stop offset="0" stop-color="#ffffff" stop-opacity="0.35"/>
      <stop offset="1" stop-color="#ffffff" stop-opacity="0"/>
    </linearGradient>
  </defs>
  <rect width="1040" height="600" fill="url(#bg)"/>
  <circle cx="880" cy="90" r="220" fill="url(#glow)"/>
  <circle cx="120" cy="540" r="180" fill="#ffffff" opacity="0.08"/>
  <g fill="none" stroke="#ffffff" stroke-opacity="0.15" stroke-width="2">
    <path d="M0 470 Q 260 380 520 470 T 1040 470"/>
    <path d="M0 510 Q 260 420 520 510 T 1040 510"/>
  </g>
  <g transform="translate(90 210)">
    <rect x="0" y="0" width="300" height="190" rx="16" fill="#ffffff" opacity="0.12"/>
    <rect x="24" y="28" width="180" height="18" rx="9" fill="#ffffff" opacity="0.7"/>
    <rect x="24" y="66" width="252" height="12" rx="6" fill="#ffffff" opacity="0.4"/>
    <rect x="24" y="92" width="252" height="12" rx="6" fill="#ffffff" opacity="0.4"/>
    <rect x="24" y="118" width="200" height="12" rx="6" fill="#ffffff" opacity="0.4"/>
    <rect x="24" y="150" width="90" height="24" rx="12" fill="#ffffff" opacity="0.65"/>
  </g>
  <text x="650" y="330" font-family="Montserrat, Arial, sans-serif" font-size="88" font-weight="800" font-style="italic" fill="#ffffff" opacity="0.9">Hello,</text>
  <text x="650" y="430" font-family="Montserrat, Arial, sans-serif" font-size="88" font-weight="800" font-style="italic" fill="#ffffff" opacity="0.55">Blog!</text>
</svg>
