<svg width="96" height="96" viewBox="0 0 96 96" fill="none" xmlns="http://www.w3.org/2000/svg">
<rect width="96" height="96" fill="#FAF9F5"/>
<path d="M76 12H20C15.5817 12 12 15.5817 12 20V76C12 80.4183 15.5817 84 20 84H76C80.4183 84 84 80.4183 84 76V20C84 15.5817 80.4183 12 76 12Z" stroke="#222222" stroke-width="8"/>
<path d="M56 12V40" stroke="#222222" stroke-width="8" stroke-linecap="round"/>
<path d="M56 62C62.0751 62 67 57.0751 67 51C67 44.9249 62.0751 40 56 40C49.9249 40 45 44.9249 45 51C45 57.0751 49.9249 62 56 62Z" fill="#222222"/>
</svg>
